<?xml version="1.0" encoding="UTF-8"?>
<!DOCTYPE svg PUBLIC "-//W3C//DTD SVG 1.1//EN" "http://www.w3.org/Graphics/SVG/1.1/DTD/svg11.dtd">
<!-- Creator: CorelDRAW 2018 (64-Bit) -->
<svg xmlns="http://www.w3.org/2000/svg" xml:space="preserve" width="198px" height="54px" version="1.1" style="shape-rendering:geometricPrecision; text-rendering:geometricPrecision; image-rendering:optimizeQuality; fill-rule:evenodd; clip-rule:evenodd"
viewBox="0 0 41.12 11.19"
 xmlns:xlink="http://www.w3.org/1999/xlink">
 <defs>
  <style type="text/css">
   <![CDATA[
    .fil1 {fill:#FEFEFE}
    .fil0 {fill:#E31E24}
    .fil2 {fill:#0477B3}
    .fil4 {fill:#E31E24;fill-rule:nonzero}
    .fil3 {fill:#0477B3;fill-rule:nonzero}
   ]]>
  </style>
     <clipPath id="id0">
      <path d="M8.6 0.74l1.85 1.85c0.35,0.36 0.35,0.94 0,1.29l-1.61 1.61 -0.78 -0.78 1.46 -1.47 -1.57 -1.57 -1.47 1.47 -0.79 -0.78 1.62 -1.62c0.35,-0.35 0.93,-0.35 1.29,0zm-3.1 3.38l-1.38 1.38 -0.78 -0.79 1.37 -1.37 0.79 0.78zm-2.36 2.36l-1.47 1.47 1.57 1.57 1.47 -1.47 0.79 0.78 -1.62 1.62c-0.35,0.35 -0.93,0.35 -1.29,0l-1.85 -1.85c-0.35,-0.36 -0.35,-0.94 0,-1.29l1.62 -1.62 0.78 0.79z"/>
     </clipPath>
         <mask id="id1">
  <linearGradient id="id2" gradientUnits="userSpaceOnUse" x1="10.62" y1="3.43" x2="9.27" y2="4.8">
   <stop offset="0" style="stop-opacity:1; stop-color:white"/>
   <stop offset="1" style="stop-opacity:0; stop-color:white"/>
  </linearGradient>
          <rect style="fill:url(#id2)" x="8.66" y="2.86" width="2.44" height="2.44"/>
         </mask>
         <mask id="id3">
  <linearGradient id="id4" gradientUnits="userSpaceOnUse" x1="10.89" y1="3.17" x2="12.26" y2="1.82">
   <stop offset="0" style="stop-opacity:1; stop-color:white"/>
   <stop offset="1" style="stop-opacity:0; stop-color:white"/>
  </linearGradient>
          <rect style="fill:url(#id4)" x="10.32" y="1.21" width="2.44" height="2.44"/>
         </mask>
         <mask id="id5">
  <linearGradient id="id6" gradientUnits="userSpaceOnUse" x1="10.8" y1="3.43" x2="12.15" y2="4.8">
   <stop offset="0" style="stop-opacity:1; stop-color:white"/>
   <stop offset="1" style="stop-opacity:0; stop-color:white"/>
  </linearGradient>
          <rect style="fill:url(#id6)" x="10.32" y="2.86" width="2.44" height="2.44"/>
         </mask>
         <mask id="id7">
  <linearGradient id="id8" gradientUnits="userSpaceOnUse" x1="10.53" y1="3.17" x2="9.16" y2="1.82">
   <stop offset="0" style="stop-opacity:1; stop-color:white"/>
   <stop offset="1" style="stop-opacity:0; stop-color:white"/>
  </linearGradient>
          <rect style="fill:url(#id8)" x="8.66" y="1.21" width="2.44" height="2.44"/>
         </mask>
         <mask id="id9">
  <linearGradient id="id10" gradientUnits="userSpaceOnUse" x1="3.16" y1="10.89" x2="1.81" y2="12.26">
   <stop offset="0" style="stop-opacity:1; stop-color:white"/>
   <stop offset="1" style="stop-opacity:0; stop-color:white"/>
  </linearGradient>
          <rect style="fill:url(#id10)" x="1.2" y="10.32" width="2.44" height="2.44"/>
         </mask>
         <mask id="id11">
  <linearGradient id="id12" gradientUnits="userSpaceOnUse" x1="3.43" y1="10.63" x2="4.8" y2="9.27">
   <stop offset="0" style="stop-opacity:1; stop-color:white"/>
   <stop offset="1" style="stop-opacity:0; stop-color:white"/>
  </linearGradient>
          <rect style="fill:url(#id12)" x="2.86" y="8.67" width="2.44" height="2.44"/>
         </mask>
         <mask id="id13">
  <linearGradient id="id14" gradientUnits="userSpaceOnUse" x1="3.34" y1="10.89" x2="4.69" y2="12.26">
   <stop offset="0" style="stop-opacity:1; stop-color:white"/>
   <stop offset="1" style="stop-opacity:0; stop-color:white"/>
  </linearGradient>
          <rect style="fill:url(#id14)" x="2.86" y="10.32" width="2.44" height="2.44"/>
         </mask>
         <mask id="id15">
  <linearGradient id="id16" gradientUnits="userSpaceOnUse" x1="3.07" y1="10.63" x2="1.7" y2="9.27">
   <stop offset="0" style="stop-opacity:1; stop-color:white"/>
   <stop offset="1" style="stop-opacity:0; stop-color:white"/>
  </linearGradient>
          <rect style="fill:url(#id16)" x="1.2" y="8.67" width="2.44" height="2.44"/>
         </mask>
     <clipPath id="id17">
      <path d="M0.74 2.6l1.85 -1.86c0.36,-0.35 0.94,-0.35 1.29,0l2.89 2.89 0.79 0.79 -0.79 0.78 -1.57 1.57 2.75 2.75 1.57 -1.57 -0.78 -0.78 0.78 -0.79 0.93 0.93c0.35,0.35 0.35,0.93 0,1.29l-1.85 1.85c-0.36,0.35 -0.94,0.35 -1.29,0l-2.89 -2.89 -0.79 -0.79 -2.89 -2.89c-0.35,-0.35 -0.35,-0.93 0,-1.28zm5.25 1.82l-2.75 -2.75 -1.57 1.57 2.75 2.75 1.57 -1.57z"/>
     </clipPath>
         <mask id="id18">
  <linearGradient id="id19" gradientUnits="userSpaceOnUse" x1="0.38" y1="3.4" x2="-0.97" y2="4.77">
   <stop offset="0" style="stop-opacity:1; stop-color:white"/>
   <stop offset="1" style="stop-opacity:0; stop-color:white"/>
  </linearGradient>
          <rect style="fill:url(#id19)" x="-1.58" y="2.83" width="2.45" height="2.44"/>
         </mask>
         <mask id="id20">
  <linearGradient id="id21" gradientUnits="userSpaceOnUse" x1="0.65" y1="3.14" x2="2.02" y2="1.79">
   <stop offset="0" style="stop-opacity:1; stop-color:white"/>
   <stop offset="1" style="stop-opacity:0; stop-color:white"/>
  </linearGradient>
          <rect style="fill:url(#id21)" x="0.08" y="1.18" width="2.44" height="2.44"/>
         </mask>
         <mask id="id22">
  <linearGradient id="id23" gradientUnits="userSpaceOnUse" x1="0.56" y1="3.4" x2="1.91" y2="4.77">
   <stop offset="0" style="stop-opacity:1; stop-color:white"/>
   <stop offset="1" style="stop-opacity:0; stop-color:white"/>
  </linearGradient>
          <rect style="fill:url(#id23)" x="0.08" y="2.83" width="2.44" height="2.44"/>
         </mask>
         <mask id="id24">
  <linearGradient id="id25" gradientUnits="userSpaceOnUse" x1="0.29" y1="3.14" x2="-1.08" y2="1.79">
   <stop offset="0" style="stop-opacity:1; stop-color:white"/>
   <stop offset="1" style="stop-opacity:0; stop-color:white"/>
  </linearGradient>
          <rect style="fill:url(#id25)" x="-1.58" y="1.18" width="2.45" height="2.44"/>
         </mask>
         <mask id="id26">
  <linearGradient id="id27" gradientUnits="userSpaceOnUse" x1="7.87" y1="10.9" x2="6.52" y2="12.27">
   <stop offset="0" style="stop-opacity:1; stop-color:white"/>
   <stop offset="1" style="stop-opacity:0; stop-color:white"/>
  </linearGradient>
          <rect style="fill:url(#id27)" x="5.91" y="10.33" width="2.44" height="2.44"/>
         </mask>
         <mask id="id28">
  <linearGradient id="id29" gradientUnits="userSpaceOnUse" x1="8.13" y1="10.63" x2="9.5" y2="9.28">
   <stop offset="0" style="stop-opacity:1; stop-color:white"/>
   <stop offset="1" style="stop-opacity:0; stop-color:white"/>
  </linearGradient>
          <rect style="fill:url(#id29)" x="7.56" y="8.67" width="2.44" height="2.44"/>
         </mask>
         <mask id="id30">
  <linearGradient id="id31" gradientUnits="userSpaceOnUse" x1="8.04" y1="10.9" x2="9.4" y2="12.27">
   <stop offset="0" style="stop-opacity:1; stop-color:white"/>
   <stop offset="1" style="stop-opacity:0; stop-color:white"/>
  </linearGradient>
          <rect style="fill:url(#id31)" x="7.56" y="10.33" width="2.44" height="2.44"/>
         </mask>
         <mask id="id32">
  <linearGradient id="id33" gradientUnits="userSpaceOnUse" x1="7.78" y1="10.63" x2="6.41" y2="9.28">
   <stop offset="0" style="stop-opacity:1; stop-color:white"/>
   <stop offset="1" style="stop-opacity:0; stop-color:white"/>
  </linearGradient>
          <rect style="fill:url(#id33)" x="5.91" y="8.67" width="2.44" height="2.44"/>
         </mask>
         <mask id="id34">
  <linearGradient id="id35" gradientUnits="userSpaceOnUse" x1="3.17" y1="0.65" x2="1.81" y2="2.03">
   <stop offset="0" style="stop-opacity:1; stop-color:white"/>
   <stop offset="1" style="stop-opacity:0; stop-color:white"/>
  </linearGradient>
          <rect style="fill:url(#id35)" x="1.21" y="0.08" width="2.44" height="2.44"/>
         </mask>
         <mask id="id36">
  <linearGradient id="id37" gradientUnits="userSpaceOnUse" x1="3.43" y1="0.39" x2="4.8" y2="-0.96">
   <stop offset="0" style="stop-opacity:1; stop-color:white"/>
   <stop offset="1" style="stop-opacity:0; stop-color:white"/>
  </linearGradient>
          <rect style="fill:url(#id37)" x="2.86" y="-1.57" width="2.44" height="2.44"/>
         </mask>
         <mask id="id38">
  <linearGradient id="id39" gradientUnits="userSpaceOnUse" x1="3.34" y1="0.65" x2="4.69" y2="2.03">
   <stop offset="0" style="stop-opacity:1; stop-color:white"/>
   <stop offset="1" style="stop-opacity:0; stop-color:white"/>
  </linearGradient>
          <rect style="fill:url(#id39)" x="2.86" y="0.08" width="2.44" height="2.44"/>
         </mask>
         <mask id="id40">
  <linearGradient id="id41" gradientUnits="userSpaceOnUse" x1="3.08" y1="0.39" x2="1.71" y2="-0.96">
   <stop offset="0" style="stop-opacity:1; stop-color:white"/>
   <stop offset="1" style="stop-opacity:0; stop-color:white"/>
  </linearGradient>
          <rect style="fill:url(#id41)" x="1.21" y="-1.57" width="2.44" height="2.44"/>
         </mask>
 </defs>
 <g id="Слой_x0020_1">
  <metadata id="CorelCorpID_0Corel-Layer"/>
  <g id="_2167656983120">
   <g>
    <path class="fil0" d="M8.6 0.74l1.85 1.85c0.35,0.36 0.35,0.94 0,1.29l-1.61 1.61 -0.78 -0.78 1.46 -1.47 -1.57 -1.57 -1.47 1.47 -0.79 -0.78 1.62 -1.62c0.35,-0.35 0.93,-0.35 1.29,0zm-3.1 3.38l-1.38 1.38 -0.78 -0.79 1.37 -1.37 0.79 0.78zm-2.36 2.36l-1.47 1.47 1.57 1.57 1.47 -1.47 0.79 0.78 -1.62 1.62c-0.35,0.35 -0.93,0.35 -1.29,0l-1.85 -1.85c-0.35,-0.36 -0.35,-0.94 0,-1.29l1.62 -1.62 0.78 0.79z"/>
    <g style="clip-path:url(#id0)">
     <g>
      <g>
       <g>
        <polygon id="1" class="fil1" style="mask:url(#id1)" points="8.71,4.57 10.37,2.91 11.05,3.59 9.39,5.25 "/>
        <polygon class="fil1" style="mask:url(#id3)" points="12.03,1.26 10.37,2.92 11.05,3.6 12.71,1.94 "/>
       </g>
       <g>
        <polygon class="fil1" style="mask:url(#id5)" points="12.71,4.57 11.05,2.91 10.37,3.59 12.03,5.25 "/>
        <polygon class="fil1" style="mask:url(#id7)" points="9.39,1.26 11.05,2.92 10.37,3.6 8.71,1.94 "/>
       </g>
      </g>
      <g>
       <g>
        <polygon class="fil1" style="mask:url(#id9)" points="1.25,12.03 2.91,10.37 3.59,11.05 1.93,12.71 "/>
        <polygon class="fil1" style="mask:url(#id11)" points="4.56,8.72 2.91,10.38 3.59,11.06 5.25,9.4 "/>
       </g>
       <g>
        <polygon class="fil1" style="mask:url(#id13)" points="5.25,12.03 3.59,10.37 2.91,11.05 4.56,12.71 "/>
        <polygon class="fil1" style="mask:url(#id15)" points="1.93,8.72 3.59,10.38 2.91,11.06 1.25,9.4 "/>
       </g>
      </g>
     </g>
    </g>
    <g>
     <path class="fil1" d="M8.93 0.41l1.86 1.85c0.27,0.27 0.4,0.62 0.4,0.98 0,0.35 -0.13,0.71 -0.4,0.98l-1.61 1.61c-0.19,0.18 -0.49,0.18 -0.68,0l-0.78 -0.79c-0.19,-0.18 -0.19,-0.48 0,-0.67l1.13 -1.13 -0.9 -0.9 -1.13 1.14c-0.19,0.18 -0.49,0.18 -0.68,0l-0.78 -0.79c-0.19,-0.18 -0.19,-0.49 0,-0.67l1.61 -1.61c0.27,-0.27 0.63,-0.41 0.98,-0.41 0.36,0 0.71,0.14 0.98,0.41 0,0 0,0 0,0l0 0zm-0.33 0.33l1.85 1.85c0.35,0.36 0.35,0.94 0,1.29l-1.61 1.61 -0.78 -0.78 1.46 -1.47 -1.57 -1.57 -1.47 1.47 -0.79 -0.78 1.62 -1.62c0.35,-0.35 0.93,-0.35 1.29,0zm-3.1 3.38l-1.38 1.38 -0.78 -0.79 1.37 -1.37 0.79 0.78zm-2.36 2.36l-1.47 1.47 1.57 1.57 1.47 -1.47 0.79 0.78 -1.62 1.62c-0.35,0.35 -0.93,0.35 -1.29,0l-1.85 -1.85c-0.35,-0.36 -0.35,-0.94 0,-1.29l1.62 -1.62 0.78 0.79zm2.69 -2.02l-1.37 1.37c-0.19,0.19 -0.49,0.19 -0.67,0l-0.79 -0.78c-0.19,-0.19 -0.19,-0.49 0,-0.68l1.37 -1.37c0.19,-0.19 0.49,-0.19 0.68,0l0.78 0.79c0.19,0.18 0.19,0.48 0,0.67zm-2.35 2.36l-1.14 1.13 0.9 0.9 1.13 -1.14c0.19,-0.18 0.49,-0.18 0.68,0l0.78 0.79c0.19,0.18 0.19,0.49 0,0.67l-1.61 1.62c-0.27,0.27 -0.63,0.4 -0.98,0.4 -0.36,0 -0.71,-0.13 -0.98,-0.4l-1.85 -1.86c-0.27,-0.27 -0.41,-0.62 -0.41,-0.98 0,-0.35 0.14,-0.71 0.41,-0.98l1.61 -1.61c0.18,-0.19 0.49,-0.19 0.67,0l0.79 0.78c0.18,0.19 0.18,0.49 0,0.68z"/>
    </g>
    <path class="fil2" d="M0.74 2.6l1.85 -1.86c0.36,-0.35 0.94,-0.35 1.29,0l2.89 2.89 0.79 0.79 -0.79 0.78 -1.57 1.57 2.75 2.75 1.57 -1.57 -0.78 -0.78 0.78 -0.79 0.93 0.93c0.35,0.35 0.35,0.93 0,1.29l-1.85 1.85c-0.36,0.35 -0.94,0.35 -1.29,0l-2.89 -2.89 -0.79 -0.79 -2.89 -2.89c-0.35,-0.35 -0.35,-0.93 0,-1.28zm5.25 1.82l-2.75 -2.75 -1.57 1.57 2.75 2.75 1.57 -1.57z"/>
    <g style="clip-path:url(#id17)">
     <g>
      <g>
       <g>
        <polygon id="1" class="fil1" style="mask:url(#id18)" points="-1.53,4.54 0.13,2.88 0.82,3.56 -0.84,5.22 "/>
        <polygon class="fil1" style="mask:url(#id20)" points="1.79,1.23 0.13,2.89 0.81,3.57 2.47,1.91 "/>
       </g>
       <g>
        <polygon class="fil1" style="mask:url(#id22)" points="2.47,4.54 0.81,2.88 0.13,3.56 1.79,5.22 "/>
        <polygon class="fil1" style="mask:url(#id24)" points="-0.84,1.23 0.82,2.89 0.13,3.57 -1.53,1.91 "/>
       </g>
      </g>
      <g>
       <g>
        <polygon class="fil1" style="mask:url(#id26)" points="5.96,12.03 7.62,10.38 8.3,11.06 6.64,12.72 "/>
        <polygon class="fil1" style="mask:url(#id28)" points="9.27,8.72 7.61,10.38 8.29,11.06 9.95,9.4 "/>
       </g>
       <g>
        <polygon class="fil1" style="mask:url(#id30)" points="9.95,12.03 8.29,10.38 7.61,11.06 9.27,12.72 "/>
        <polygon class="fil1" style="mask:url(#id32)" points="6.64,8.72 8.3,10.38 7.62,11.06 5.96,9.4 "/>
       </g>
      </g>
      <g>
       <g>
        <polygon class="fil1" style="mask:url(#id34)" points="1.26,1.79 2.92,0.13 3.6,0.82 1.94,2.47 "/>
        <polygon class="fil1" style="mask:url(#id36)" points="4.57,-1.52 2.91,0.14 3.59,0.82 5.25,-0.84 "/>
       </g>
       <g>
        <polygon class="fil1" style="mask:url(#id38)" points="5.25,1.79 3.59,0.13 2.91,0.82 4.57,2.47 "/>
        <polygon class="fil1" style="mask:url(#id40)" points="1.94,-1.52 3.6,0.14 2.92,0.82 1.26,-0.84 "/>
       </g>
      </g>
     </g>
    </g>
    <g>
     <path class="fil1" d="M0.41 2.26l1.85 -1.85c0.27,-0.27 0.62,-0.41 0.98,-0.41 0.35,0 0.71,0.14 0.98,0.41l2.89 2.89 0.79 0.78c0.18,0.19 0.18,0.49 0,0.67l-0.79 0.79 -1.23 1.23 2.07 2.08 0.9 -0.9 -0.45 -0.45c-0.19,-0.18 -0.19,-0.48 0,-0.67l0.79 -0.79c0.18,-0.18 0.48,-0.18 0.67,0l0.93 0.93c0.27,0.27 0.4,0.63 0.4,0.98 0,0.36 -0.13,0.71 -0.4,0.98l-1.86 1.86c-0.01,0.01 -0.02,0.02 -0.03,0.02 -0.27,0.26 -0.61,0.38 -0.95,0.38 -0.35,0 -0.71,-0.13 -0.98,-0.4l-2.89 -2.89 -0.78 -0.79 -2.89 -2.89c-0.27,-0.27 -0.41,-0.63 -0.41,-0.98 0,-0.36 0.14,-0.71 0.41,-0.98zm0.33 0.34l1.85 -1.86c0.36,-0.35 0.94,-0.35 1.29,0l2.89 2.89 0.79 0.79 -0.79 0.78 -1.57 1.57 2.75 2.75 1.57 -1.57 -0.78 -0.78 0.78 -0.79 0.93 0.93c0.35,0.35 0.35,0.93 0,1.29l-1.85 1.85c-0.36,0.35 -0.94,0.35 -1.29,0l-2.89 -2.89 -0.79 -0.79 -2.89 -2.89c-0.35,-0.35 -0.35,-0.93 0,-1.28zm5.25 1.82l-2.75 -2.75 -1.57 1.57 2.75 2.75 1.57 -1.57zm-0.68 0l-2.07 -2.08 -0.9 0.9 2.08 2.07 0.89 -0.89z"/>
    </g>
   </g>
   <g>
    <g>
     <path class="fil3" d="M12.85 5.26l0 -0.53 0.74 0 0 -1.07c0,-0.1 -0.05,-0.15 -0.16,-0.15l-0.19 0c-0.11,0 -0.16,0.05 -0.16,0.15l0 0.7 -0.68 0 0 -0.85c0,-0.15 0.06,-0.28 0.16,-0.38 0.11,-0.11 0.23,-0.16 0.38,-0.16l0.79 0c0.15,0 0.28,0.05 0.38,0.16 0.1,0.1 0.16,0.23 0.16,0.38l0 3.3c0,0.14 -0.06,0.27 -0.16,0.37 -0.1,0.11 -0.23,0.16 -0.38,0.16l-0.79 0c-0.15,0 -0.27,-0.05 -0.38,-0.16 -0.1,-0.1 -0.16,-0.23 -0.16,-0.38l0 -1.17 0.68 0 0 1.02c0,0.1 0.05,0.16 0.16,0.16l0.19 0c0.11,0 0.16,-0.06 0.16,-0.16l0 -1.39 -0.74 0zm1.81 2.08l0 -3.57 0.62 0 0 1.47 0.04 0 0.38 -1.47 0.62 0 -0.55 1.68 0.64 1.89 -0.65 0 -0.45 -1.54 -0.03 0 0 1.54 -0.62 0zm3.03 -1.4l0.61 0 0 0.91c0,0.15 -0.05,0.28 -0.15,0.38 -0.11,0.1 -0.23,0.16 -0.38,0.16l-0.62 0c-0.15,0 -0.28,-0.06 -0.38,-0.16 -0.11,-0.1 -0.16,-0.23 -0.16,-0.38l0 -2.6c0,-0.15 0.05,-0.28 0.16,-0.38 0.1,-0.1 0.23,-0.16 0.38,-0.16l0.62 0c0.15,0 0.27,0.06 0.38,0.16 0.1,0.1 0.15,0.23 0.15,0.38l0 0.85 -0.61 0 0 -0.7c0,-0.07 -0.03,-0.12 -0.07,-0.17 -0.04,-0.04 -0.1,-0.06 -0.16,-0.06 -0.07,0 -0.12,0.02 -0.17,0.06 -0.04,0.05 -0.06,0.1 -0.06,0.17l0 2.3c0,0.07 0.02,0.12 0.06,0.17 0.05,0.04 0.1,0.06 0.17,0.06 0.06,0 0.12,-0.02 0.16,-0.06 0.04,-0.05 0.07,-0.1 0.07,-0.17l0 -0.76zm0.97 1.4l0 -3.57 0.62 0 0 0.2c0.04,-0.07 0.1,-0.13 0.16,-0.17 0.08,-0.06 0.18,-0.09 0.3,-0.09 0.17,0 0.31,0.06 0.43,0.19 0.12,0.12 0.19,0.26 0.19,0.43l0 3.01 -0.62 0 0 -2.89c0,-0.07 -0.03,-0.12 -0.07,-0.16 -0.04,-0.05 -0.1,-0.07 -0.16,-0.07 -0.07,0 -0.12,0.02 -0.16,0.07 -0.05,0.04 -0.07,0.09 -0.07,0.16l0 2.89 -0.62 0zm3.16 -1.2l0.62 0 0 0.71c0,0.15 -0.05,0.28 -0.16,0.38 -0.1,0.1 -0.23,0.16 -0.38,0.16l-0.62 0c-0.15,0 -0.27,-0.06 -0.38,-0.16 -0.1,-0.1 -0.15,-0.23 -0.15,-0.38l0 -2.6c0,-0.15 0.05,-0.28 0.15,-0.38 0.11,-0.1 0.23,-0.16 0.38,-0.16l0.62 0c0.15,0 0.28,0.06 0.38,0.16 0.11,0.1 0.16,0.23 0.16,0.38l0 1.35 -1.08 0 0 1.1c0,0.07 0.03,0.12 0.07,0.17 0.04,0.04 0.1,0.06 0.16,0.06 0.07,0 0.12,-0.02 0.17,-0.06 0.04,-0.05 0.06,-0.1 0.06,-0.17l0 -0.56zm0 -1l0 -0.74c0,-0.07 -0.02,-0.12 -0.06,-0.17 -0.05,-0.04 -0.1,-0.06 -0.17,-0.06 -0.06,0 -0.12,0.02 -0.16,0.06 -0.04,0.05 -0.07,0.1 -0.07,0.17l0 0.74 0.46 0zm1.01 3.08l0 -4.45 0.62 0 0 0.2c0.04,-0.07 0.09,-0.13 0.15,-0.17 0.09,-0.06 0.19,-0.09 0.3,-0.09 0.17,0 0.32,0.06 0.44,0.19 0.12,0.12 0.18,0.26 0.18,0.43l0 2.44c0,0.17 -0.06,0.31 -0.18,0.43 -0.12,0.13 -0.27,0.19 -0.44,0.19 -0.09,0 -0.18,-0.03 -0.26,-0.08 -0.09,-0.04 -0.15,-0.11 -0.19,-0.18l0 1.09 -0.62 0zm1.07 -1.52l0 -2.3c0,-0.07 -0.02,-0.12 -0.06,-0.17 -0.04,-0.04 -0.1,-0.06 -0.16,-0.06 -0.07,0 -0.12,0.02 -0.17,0.06 -0.04,0.05 -0.06,0.1 -0.06,0.17l0 2.3c0,0.07 0.02,0.12 0.06,0.17 0.05,0.04 0.1,0.06 0.17,0.06 0.06,0 0.12,-0.02 0.16,-0.06 0.04,-0.05 0.06,-0.1 0.06,-0.17zm3.77 0.64l-0.61 0 0 -2.94c0,-0.07 -0.03,-0.12 -0.07,-0.17 -0.04,-0.04 -0.1,-0.06 -0.16,-0.06 -0.07,0 -0.12,0.02 -0.17,0.06 -0.04,0.05 -0.06,0.1 -0.06,0.17l0 2.94 -0.61 0 0 -2.94c0,-0.07 -0.02,-0.12 -0.07,-0.17 -0.04,-0.04 -0.1,-0.06 -0.16,-0.06 -0.07,0 -0.12,0.02 -0.16,0.06 -0.05,0.05 -0.07,0.1 -0.07,0.17l0 2.94 -0.62 0 0 -3.57 0.62 0 0 0.2c0.04,-0.07 0.11,-0.13 0.22,-0.18 0.11,-0.05 0.22,-0.08 0.34,-0.08 0.09,0 0.19,0.03 0.29,0.08 0.1,0.04 0.17,0.11 0.22,0.18 0.12,-0.17 0.3,-0.26 0.54,-0.26 0.15,0 0.27,0.06 0.38,0.16 0.1,0.1 0.15,0.23 0.15,0.38l0 3.09z"/>
     <path id="1" class="fil1" d="M12.38 5.15l0 -0.32c-0.25,-0.01 -0.45,-0.22 -0.45,-0.47l0 -0.85c0,-0.14 0.02,-0.27 0.07,-0.39 0.05,-0.12 0.13,-0.23 0.22,-0.33 0,0 0,0 0,0l0 0c0.1,-0.09 0.21,-0.17 0.33,-0.22 0.13,-0.05 0.25,-0.08 0.39,-0.08l0.79 0c0.14,0 0.27,0.03 0.39,0.08 0.12,0.05 0.23,0.13 0.33,0.22 0.09,0.1 0.17,0.21 0.22,0.33 0.02,0.06 0.04,0.11 0.05,0.17l0.56 0c0.07,0 0.15,0.02 0.21,0.05 0.07,-0.03 0.15,-0.05 0.23,-0.05l0.6 0c0.11,0 0.21,0.04 0.29,0.1 0.05,-0.03 0.1,-0.06 0.15,-0.08 0.12,-0.05 0.25,-0.07 0.39,-0.07l0.62 0c0.13,0 0.26,0.02 0.39,0.07 0.06,0.03 0.12,0.06 0.18,0.1 0.09,-0.07 0.2,-0.12 0.32,-0.12l0.62 0c0.03,0 0.07,0 0.1,0.01 0.02,-0.01 0.04,-0.02 0.07,-0.02 0.09,-0.03 0.19,-0.04 0.29,-0.04 0.14,0 0.28,0.02 0.42,0.08 0.13,0.05 0.25,0.13 0.35,0.24 0.01,0 0.01,0.01 0.02,0.01 0.01,-0.01 0.02,-0.02 0.04,-0.04 0.01,-0.01 0.02,-0.02 0.03,-0.03 0.09,-0.08 0.19,-0.14 0.29,-0.19 0.13,-0.05 0.26,-0.07 0.39,-0.07l0.62 0c0.14,0 0.27,0.02 0.39,0.07 0.01,0.01 0.02,0.01 0.03,0.02 0.06,0.03 0.12,0.06 0.17,0.1 0.09,-0.09 0.21,-0.14 0.34,-0.14l0.62 0c0.03,0 0.06,0 0.09,0.01 0.03,-0.01 0.05,-0.02 0.07,-0.02 0.1,-0.03 0.19,-0.04 0.29,-0.04 0.15,0 0.29,0.02 0.42,0.08 0.09,0.03 0.16,0.08 0.23,0.13 0.09,-0.1 0.22,-0.16 0.36,-0.16l0.62 0c0.05,0 0.1,0.01 0.14,0.02 0.05,-0.02 0.09,-0.03 0.14,-0.04 0.09,-0.02 0.18,-0.03 0.28,-0.03 0.08,0 0.17,0.01 0.26,0.03 0.08,0.02 0.16,0.05 0.24,0.09l0 0c0,0 0,0 0.01,0 0,0 0.01,-0.01 0.02,-0.01 0.15,-0.08 0.33,-0.11 0.52,-0.11 0.13,0 0.26,0.02 0.39,0.07 0.12,0.05 0.23,0.13 0.32,0.22 0.02,0.01 0.03,0.03 0.04,0.04 0.08,0.09 0.14,0.18 0.18,0.29 0.06,0.13 0.08,0.25 0.08,0.39l0 3.09c0,0.26 -0.21,0.48 -0.48,0.48l-0.61 0c-0.09,0 -0.16,-0.02 -0.23,-0.06 -0.07,0.04 -0.15,0.06 -0.23,0.06l-0.61 0c-0.09,0 -0.16,-0.02 -0.23,-0.06 -0.07,0.04 -0.15,0.06 -0.23,0.06l-0.62 0c-0.14,0 -0.27,-0.07 -0.36,-0.17 -0.07,0.05 -0.15,0.1 -0.23,0.13 -0.12,0.05 -0.26,0.08 -0.4,0.08l0 0.36c0,0.26 -0.21,0.48 -0.47,0.48l-0.62 0c-0.26,0 -0.48,-0.22 -0.48,-0.48l0 -0.46c-0.02,0.01 -0.04,0.02 -0.06,0.03l0 0c-0.12,0.05 -0.25,0.07 -0.39,0.07l-0.62 0c-0.13,0 -0.26,-0.02 -0.39,-0.07 -0.07,-0.03 -0.13,-0.07 -0.2,-0.11 -0.08,0.08 -0.2,0.14 -0.33,0.14l-0.62 0c-0.09,0 -0.16,-0.02 -0.23,-0.06 -0.07,0.04 -0.15,0.06 -0.23,0.06l-0.62 0c-0.12,0 -0.24,-0.05 -0.32,-0.13 -0.06,0.04 -0.12,0.07 -0.18,0.1 -0.13,0.05 -0.26,0.07 -0.39,0.07l-0.62 0c-0.14,0 -0.27,-0.02 -0.39,-0.07 -0.03,-0.02 -0.06,-0.03 -0.1,-0.05 -0.03,0.02 -0.06,0.04 -0.1,0.05 -0.05,0.02 -0.1,0.03 -0.15,0.03l0 0 -0.65 0c-0.09,0 -0.17,-0.03 -0.24,-0.07 -0.07,0.04 -0.16,0.07 -0.24,0.07l-0.62 0c-0.15,0 -0.28,-0.07 -0.37,-0.17 -0.05,0.03 -0.11,0.07 -0.17,0.09 -0.01,0.01 -0.02,0.01 -0.03,0.01 -0.12,0.05 -0.23,0.07 -0.36,0.07l-0.79 0c-0.14,0 -0.27,-0.03 -0.39,-0.08 -0.12,-0.05 -0.23,-0.12 -0.33,-0.22 -0.09,-0.1 -0.17,-0.21 -0.22,-0.33 -0.05,-0.12 -0.07,-0.25 -0.07,-0.39l0 -1.17c0,-0.26 0.2,-0.46 0.45,-0.48zm0.47 0.11l0 -0.53 0.74 0 0 -1.07c0,-0.1 -0.05,-0.15 -0.16,-0.15l-0.19 0c-0.11,0 -0.16,0.05 -0.16,0.15l0 0.7 -0.68 0 0 -0.85c0,-0.15 0.06,-0.28 0.16,-0.38 0.11,-0.11 0.23,-0.16 0.38,-0.16l0.79 0c0.15,0 0.28,0.05 0.38,0.16 0.1,0.1 0.16,0.23 0.16,0.38l0 3.3c0,0.14 -0.06,0.27 -0.16,0.37 -0.1,0.11 -0.23,0.16 -0.38,0.16l-0.79 0c-0.15,0 -0.27,-0.05 -0.38,-0.16 -0.1,-0.1 -0.16,-0.23 -0.16,-0.38l0 -1.17 0.68 0 0 1.02c0,0.1 0.05,0.16 0.16,0.16l0.19 0c0.11,0 0.16,-0.06 0.16,-0.16l0 -1.39 -0.74 0zm1.81 2.08l0 -3.57 0.62 0 0 1.47 0.04 0 0.38 -1.47 0.62 0 -0.55 1.68 0.64 1.89 -0.65 0 -0.45 -1.54 -0.03 0 0 1.54 -0.62 0zm3.03 -1.4l0.61 0 0 0.91c0,0.15 -0.05,0.28 -0.15,0.38 -0.11,0.1 -0.23,0.16 -0.38,0.16l-0.62 0c-0.15,0 -0.28,-0.06 -0.38,-0.16 -0.11,-0.1 -0.16,-0.23 -0.16,-0.38l0 -2.6c0,-0.15 0.05,-0.28 0.16,-0.38 0.1,-0.1 0.23,-0.16 0.38,-0.16l0.62 0c0.15,0 0.27,0.06 0.38,0.16 0.1,0.1 0.15,0.23 0.15,0.38l0 0.85 -0.61 0 0 -0.7c0,-0.07 -0.03,-0.12 -0.07,-0.17 -0.04,-0.04 -0.1,-0.06 -0.16,-0.06 -0.07,0 -0.12,0.02 -0.17,0.06 -0.04,0.05 -0.06,0.1 -0.06,0.17l0 2.3c0,0.07 0.02,0.12 0.06,0.17 0.05,0.04 0.1,0.06 0.17,0.06 0.06,0 0.12,-0.02 0.16,-0.06 0.04,-0.05 0.07,-0.1 0.07,-0.17l0 -0.76zm0.97 1.4l0 -3.57 0.62 0 0 0.2c0.04,-0.07 0.1,-0.13 0.16,-0.17 0.08,-0.06 0.18,-0.09 0.3,-0.09 0.17,0 0.31,0.06 0.43,0.19 0.12,0.12 0.19,0.26 0.19,0.43l0 3.01 -0.62 0 0 -2.89c0,-0.07 -0.03,-0.12 -0.07,-0.16 -0.04,-0.05 -0.1,-0.07 -0.16,-0.07 -0.07,0 -0.12,0.02 -0.16,0.07 -0.05,0.04 -0.07,0.09 -0.07,0.16l0 2.89 -0.62 0zm2.93 -0.41c0.07,0 0.12,-0.02 0.17,-0.06 0.04,-0.05 0.06,-0.1 0.06,-0.17l0 -0.56 0.62 0 0 0.71c0,0.15 -0.05,0.28 -0.16,0.38 -0.1,0.1 -0.23,0.16 -0.38,0.16l-0.62 0c-0.15,0 -0.27,-0.06 -0.38,-0.16 -0.1,-0.1 -0.15,-0.23 -0.15,-0.38l0 -2.6c0,-0.15 0.05,-0.28 0.15,-0.38 0.11,-0.1 0.23,-0.16 0.38,-0.16l0.62 0c0.15,0 0.28,0.06 0.38,0.16 0.11,0.1 0.16,0.23 0.16,0.38l0 1.35 -1.08 0 0 1.1c0,0.07 0.03,0.12 0.07,0.17 0.04,0.04 0.1,0.06 0.16,0.06zm0.23 -1.79l0 -0.74c0,-0.07 -0.02,-0.12 -0.06,-0.17 -0.05,-0.04 -0.1,-0.06 -0.17,-0.06 -0.06,0 -0.12,0.02 -0.16,0.06 -0.04,0.05 -0.07,0.1 -0.07,0.17l0 0.74 0.46 0zm1.01 3.08l0 -4.45 0.62 0 0 0.2c0.04,-0.07 0.09,-0.13 0.15,-0.17 0.09,-0.06 0.19,-0.09 0.3,-0.09 0.17,0 0.32,0.06 0.44,0.19 0.12,0.12 0.18,0.26 0.18,0.43l0 2.44c0,0.17 -0.06,0.31 -0.18,0.43 -0.12,0.13 -0.27,0.19 -0.44,0.19 -0.09,0 -0.18,-0.03 -0.26,-0.08 -0.09,-0.04 -0.15,-0.11 -0.19,-0.18l0 1.09 -0.62 0zm1.07 -1.52l0 -2.3c0,-0.07 -0.02,-0.12 -0.06,-0.17 -0.04,-0.04 -0.1,-0.06 -0.16,-0.06 -0.07,0 -0.12,0.02 -0.17,0.06 -0.04,0.05 -0.06,0.1 -0.06,0.17l0 2.3c0,0.07 0.02,0.12 0.06,0.17 0.05,0.04 0.1,0.06 0.17,0.06 0.06,0 0.12,-0.02 0.16,-0.06 0.04,-0.05 0.06,-0.1 0.06,-0.17zm3.77 0.64l-0.61 0 0 -2.94c0,-0.07 -0.03,-0.12 -0.07,-0.17 -0.04,-0.04 -0.1,-0.06 -0.16,-0.06 -0.07,0 -0.12,0.02 -0.17,0.06 -0.04,0.05 -0.06,0.1 -0.06,0.17l0 2.94 -0.61 0 0 -2.94c0,-0.07 -0.02,-0.12 -0.07,-0.17 -0.04,-0.04 -0.1,-0.06 -0.16,-0.06 -0.07,0 -0.12,0.02 -0.16,0.06 -0.05,0.05 -0.07,0.1 -0.07,0.17l0 2.94 -0.62 0 0 -3.57 0.62 0 0 0.2c0.04,-0.07 0.11,-0.13 0.22,-0.18 0.11,-0.05 0.22,-0.08 0.34,-0.08 0.09,0 0.19,0.03 0.29,0.08 0.1,0.04 0.17,0.11 0.22,0.18 0.12,-0.17 0.3,-0.26 0.54,-0.26 0.15,0 0.27,0.06 0.38,0.16 0.1,0.1 0.15,0.23 0.15,0.38l0 3.09z"/>
    </g>
    <g>
     <path class="fil4" d="M29.22 7.34l0 -4.37 0.68 0 0 3.84 0.51 0 0 -3.84 0.68 0 0 3.84 0.25 0 0 1.41 -0.46 0 0 -0.88 -1.66 0zm3.49 -1.2l0.62 0 0 0.71c0,0.15 -0.06,0.28 -0.16,0.38 -0.1,0.1 -0.23,0.16 -0.38,0.16l-0.62 0c-0.15,0 -0.28,-0.06 -0.38,-0.16 -0.11,-0.1 -0.16,-0.23 -0.16,-0.38l0 -2.6c0,-0.15 0.05,-0.28 0.16,-0.38 0.1,-0.1 0.23,-0.16 0.38,-0.16l0.62 0c0.15,0 0.28,0.06 0.38,0.16 0.1,0.1 0.16,0.23 0.16,0.38l0 1.35 -1.08 0 0 1.1c0,0.07 0.02,0.12 0.07,0.17 0.04,0.04 0.09,0.06 0.16,0.06 0.06,0 0.12,-0.02 0.16,-0.06 0.05,-0.05 0.07,-0.1 0.07,-0.17l0 -0.56zm0 -1l0 -0.74c0,-0.07 -0.02,-0.12 -0.07,-0.17 -0.04,-0.04 -0.1,-0.06 -0.16,-0.06 -0.07,0 -0.12,0.02 -0.16,0.06 -0.05,0.05 -0.07,0.1 -0.07,0.17l0 0.74 0.46 0zm1.01 2.2l0 -3.57 0.62 0 0 1.45 0.45 0 0 -1.45 0.62 0 0 3.57 -0.62 0 0 -1.66 -0.45 0 0 1.66 -0.62 0zm4.84 0l-0.62 0 0 -2.94c0,-0.07 -0.02,-0.12 -0.06,-0.17 -0.05,-0.04 -0.1,-0.06 -0.17,-0.06 -0.06,0 -0.11,0.02 -0.16,0.06 -0.04,0.05 -0.06,0.1 -0.06,0.17l0 2.94 -0.62 0 0 -2.94c0,-0.07 -0.02,-0.12 -0.06,-0.17 -0.04,-0.04 -0.1,-0.06 -0.16,-0.06 -0.07,0 -0.12,0.02 -0.17,0.06 -0.04,0.05 -0.06,0.1 -0.06,0.17l0 2.94 -0.62 0 0 -3.57 0.62 0 0 0.2c0.03,-0.07 0.11,-0.13 0.21,-0.18 0.11,-0.05 0.22,-0.08 0.34,-0.08 0.1,0 0.2,0.03 0.3,0.08 0.1,0.04 0.17,0.11 0.22,0.18 0.11,-0.17 0.29,-0.26 0.54,-0.26 0.14,0 0.27,0.06 0.37,0.16 0.11,0.1 0.16,0.23 0.16,0.38l0 3.09zm0.39 0.88l0 -4.45 0.62 0 0 0.2c0.04,-0.07 0.1,-0.13 0.16,-0.17 0.08,-0.06 0.18,-0.09 0.3,-0.09 0.17,0 0.31,0.06 0.43,0.19 0.12,0.12 0.18,0.26 0.18,0.43l0 2.44c0,0.17 -0.06,0.31 -0.18,0.43 -0.12,0.13 -0.26,0.19 -0.43,0.19 -0.1,0 -0.19,-0.03 -0.27,-0.08 -0.08,-0.04 -0.15,-0.11 -0.19,-0.18l0 1.09 -0.62 0zm1.08 -1.52l0 -2.3c0,-0.07 -0.03,-0.12 -0.07,-0.17 -0.04,-0.04 -0.1,-0.06 -0.16,-0.06 -0.07,0 -0.12,0.02 -0.16,0.06 -0.05,0.05 -0.07,0.1 -0.07,0.17l0 2.3c0,0.07 0.02,0.12 0.07,0.17 0.04,0.04 0.09,0.06 0.16,0.06 0.06,0 0.12,-0.02 0.16,-0.06 0.04,-0.05 0.07,-0.1 0.07,-0.17z"/>
     <path id="1" class="fil1" d="M28.75 7.34l0 -4.37c0,-0.26 0.21,-0.48 0.47,-0.48l0.68 0c0.09,0 0.18,0.03 0.25,0.08 0.08,-0.05 0.17,-0.08 0.26,-0.08l0.68 0c0.26,0 0.47,0.22 0.47,0.48l0 0.47c0.07,-0.05 0.14,-0.09 0.22,-0.13 0.12,-0.05 0.25,-0.07 0.39,-0.07l0.62 0c0.14,0 0.27,0.02 0.39,0.07 0.01,0.01 0.02,0.01 0.03,0.02 0.06,0.03 0.12,0.06 0.17,0.1 0.09,-0.09 0.21,-0.14 0.34,-0.14l0.62 0c0.08,0 0.16,0.02 0.22,0.06 0.07,-0.04 0.15,-0.06 0.23,-0.06l0.62 0c0.07,0 0.14,0.01 0.19,0.04 0.06,-0.03 0.13,-0.04 0.2,-0.04l0.62 0c0.05,0 0.09,0.01 0.14,0.02 0.04,-0.02 0.09,-0.03 0.13,-0.04 0.1,-0.02 0.19,-0.03 0.28,-0.03 0.09,0 0.17,0.01 0.26,0.03 0.08,0.02 0.17,0.05 0.25,0.09l0 0c0,0 0,0 0,0 0.01,0 0.02,-0.01 0.02,-0.01 0.16,-0.08 0.33,-0.11 0.53,-0.11 0.13,0 0.26,0.02 0.38,0.07 0.08,0.03 0.14,0.07 0.21,0.12 0.08,-0.09 0.2,-0.14 0.33,-0.14l0.62 0c0.03,0 0.07,0 0.1,0.01 0.02,-0.01 0.04,-0.02 0.06,-0.02 0.1,-0.03 0.2,-0.04 0.3,-0.04 0.14,0 0.28,0.02 0.41,0.08 0.14,0.05 0.25,0.13 0.36,0.24 0.1,0.1 0.18,0.22 0.24,0.35 0.05,0.14 0.08,0.28 0.08,0.42l0 2.44c0,0.14 -0.03,0.28 -0.08,0.42 -0.06,0.13 -0.14,0.24 -0.24,0.35l0 0c-0.1,0.1 -0.22,0.18 -0.36,0.24 -0.12,0.05 -0.25,0.08 -0.39,0.08l0 0.36c0,0.26 -0.22,0.48 -0.48,0.48l-0.62 0c-0.26,0 -0.48,-0.22 -0.48,-0.48l0 -0.4 -0.53 0c-0.08,0 -0.16,-0.02 -0.23,-0.06 -0.06,0.04 -0.14,0.06 -0.22,0.06l-0.62 0c-0.08,0 -0.16,-0.02 -0.22,-0.06 -0.07,0.04 -0.15,0.06 -0.23,0.06l-0.62 0c-0.07,0 -0.14,-0.02 -0.2,-0.04 -0.05,0.02 -0.12,0.04 -0.19,0.04l-0.62 0c-0.08,0 -0.16,-0.02 -0.23,-0.06 -0.06,0.04 -0.14,0.06 -0.22,0.06l-0.62 0c-0.14,0 -0.26,-0.06 -0.34,-0.14 -0.06,0.04 -0.13,0.08 -0.2,0.11l0 0c-0.12,0.05 -0.25,0.07 -0.39,0.07l-0.62 0c-0.12,0 -0.24,-0.02 -0.35,-0.06l0 0.42c0,0.26 -0.22,0.48 -0.48,0.48l-0.46 0c-0.26,0 -0.47,-0.22 -0.47,-0.48l0 -0.4 -1.19 0c-0.26,0 -0.47,-0.22 -0.47,-0.48zm0.47 0l0 -4.37 0.68 0 0 3.84 0.51 0 0 -3.84 0.68 0 0 3.84 0.25 0 0 1.41 -0.46 0 0 -0.88 -1.66 0zm3.49 -1.2l0.62 0 0 0.71c0,0.15 -0.06,0.28 -0.16,0.38 -0.1,0.1 -0.23,0.16 -0.38,0.16l-0.62 0c-0.15,0 -0.28,-0.06 -0.38,-0.16 -0.11,-0.1 -0.16,-0.23 -0.16,-0.38l0 -2.6c0,-0.15 0.05,-0.28 0.16,-0.38 0.1,-0.1 0.23,-0.16 0.38,-0.16l0.62 0c0.15,0 0.28,0.06 0.38,0.16 0.1,0.1 0.16,0.23 0.16,0.38l0 1.35 -1.08 0 0 1.1c0,0.07 0.02,0.12 0.07,0.17 0.04,0.04 0.09,0.06 0.16,0.06 0.06,0 0.12,-0.02 0.16,-0.06 0.05,-0.05 0.07,-0.1 0.07,-0.17l0 -0.56zm0 -1l0 -0.74c0,-0.07 -0.02,-0.12 -0.07,-0.17 -0.04,-0.04 -0.1,-0.06 -0.16,-0.06 -0.07,0 -0.12,0.02 -0.16,0.06 -0.05,0.05 -0.07,0.1 -0.07,0.17l0 0.74 0.46 0zm1.01 2.2l0 -3.57 0.62 0 0 1.45 0.45 0 0 -1.45 0.62 0 0 3.57 -0.62 0 0 -1.66 -0.45 0 0 1.66 -0.62 0zm4.84 0l-0.62 0 0 -2.94c0,-0.07 -0.02,-0.12 -0.06,-0.17 -0.05,-0.04 -0.1,-0.06 -0.17,-0.06 -0.06,0 -0.11,0.02 -0.16,0.06 -0.04,0.05 -0.06,0.1 -0.06,0.17l0 2.94 -0.62 0 0 -2.94c0,-0.07 -0.02,-0.12 -0.06,-0.17 -0.04,-0.04 -0.1,-0.06 -0.16,-0.06 -0.07,0 -0.12,0.02 -0.17,0.06 -0.04,0.05 -0.06,0.1 -0.06,0.17l0 2.94 -0.62 0 0 -3.57 0.62 0 0 0.2c0.03,-0.07 0.11,-0.13 0.21,-0.18 0.11,-0.05 0.22,-0.08 0.34,-0.08 0.1,0 0.2,0.03 0.3,0.08 0.1,0.04 0.17,0.11 0.22,0.18 0.11,-0.17 0.29,-0.26 0.54,-0.26 0.14,0 0.27,0.06 0.37,0.16 0.11,0.1 0.16,0.23 0.16,0.38l0 3.09zm0.39 0.88l0 -4.45 0.62 0 0 0.2c0.04,-0.07 0.1,-0.13 0.16,-0.17 0.08,-0.06 0.18,-0.09 0.3,-0.09 0.17,0 0.31,0.06 0.43,0.19 0.12,0.12 0.18,0.26 0.18,0.43l0 2.44c0,0.17 -0.06,0.31 -0.18,0.43 -0.12,0.13 -0.26,0.19 -0.43,0.19 -0.1,0 -0.19,-0.03 -0.27,-0.08 -0.08,-0.04 -0.15,-0.11 -0.19,-0.18l0 1.09 -0.62 0zm0.85 -1.29c0.06,0 0.12,-0.02 0.16,-0.06 0.04,-0.05 0.07,-0.1 0.07,-0.17l0 -2.3c0,-0.07 -0.03,-0.12 -0.07,-0.17 -0.04,-0.04 -0.1,-0.06 -0.16,-0.06 -0.07,0 -0.12,0.02 -0.16,0.06 -0.05,0.05 -0.07,0.1 -0.07,0.17l0 2.3c0,0.07 0.02,0.12 0.07,0.17 0.04,0.04 0.09,0.06 0.16,0.06z"/>
    </g>
   </g>
  </g>
 </g>
</svg>
